<svg version="1.1" xmlns="http://www.w3.org/2000/svg" viewBox="-3.5931882595946147 -8.392903646035101 7.267157426503461 17.38268667828548" fill="none" stroke="black" stroke-width="0.6%" vector-effect="non-scaling-stroke">
    <path d="M 2.50664 -5.26982 L 2.50664 -5.67994 L 2.36076 -5.96194 L 2.29904 -6.2548 L 2.21264 -6.24829 L 1.62054 -7.3929 L -1.24561 -6.86333 L -0.58292 -5.58223 L -0.39704 -4.70031 L -0.47022 -3.8125 L -0.80026 -2.94577 L -1.3771 -2.12645 L -2.59319 -0.99958 L -0.07207 -0.02778 L 1.01445 -1.0346 L 1.01445 6.98296 L 1.09472 7.00315 L 1.28627 6.73109 L 1.55396 6.48303 L 1.55396 -1.53453 L 1.48078 -1.56274 L 1.87221 -2.1187 L 1.87221 5.89887 L 1.95712 5.91041 L 2.06671 5.6226 L 2.25826 5.35054 L 2.25826 -2.66702 L 2.17799 -2.68721 L 2.40194 -3.27534 L 2.40194 4.74222 L 2.48892 4.74478 L 2.51323 4.44997 L 2.62282 4.16216 L 2.62282 -3.8554 L 2.5379 -3.86695 L 2.58757 -4.4694 L 2.58757 -3.8602" />
    <path d="M 2.42344 -5.66457 L 2.50664 -5.67994" />
    <path d="M -2.59319 7.01798 L -0.07207 7.98978 L 1.01445 6.98296" />
    <path d="M 1.55396 6.35088 L 1.87221 5.89887" />
    <path d="M 2.25826 5.11956 L 2.40194 4.74222" />
    <path d="M 2.62282 3.54551 L 2.67397 3.54166 L 2.67397 -4.4759 L 2.61224 -4.76875 L 2.63655 -5.06356 L 2.54957 -5.06613 L 2.42344 -5.66457" />
    <path d="M 1.01445 -1.0346 L 1.09472 -1.01441 L 1.28627 -1.28648 L 1.55396 -1.53453" />
    <path d="M 1.87221 -2.1187 L 1.95712 -2.10715 L 2.06671 -2.39496 L 2.25826 -2.66702" />
    <path d="M 2.40194 -3.27534 L 2.48892 -3.27278 L 2.51323 -3.56759 L 2.62282 -3.8554" />
    <path d="M 2.58757 -4.4694 L 2.67397 -4.4759" />
    <path d="M -1.24561 -2.31322 L -1.24561 -6.86333" />
    <path d="M -0.58292 -3.51655 L -0.58292 -5.58223" />
    <path d="M 2.63655 -4.65344 L 2.63655 -5.06356" />
    <path d="M -2.59319 7.01798 L -2.59319 -0.99958" />
    <path d="M -0.07207 7.98978 L -0.07207 -0.02778" />
    <path d="M 1.09472 7.00315 L 1.09472 -1.01441" />
    <path d="M 1.28627 6.73109 L 1.28627 -1.28648" />
    <path d="M 1.95712 5.91041 L 1.95712 -2.10715" />
    <path d="M 2.06671 5.6226 L 2.06671 -2.39496" />
    <path d="M 2.48892 4.74478 L 2.48892 -3.27278" />
    <path d="M 2.51323 4.44997 L 2.51323 -3.56759" />
</svg>